<?xml version="1.0" encoding="UTF-8"?>
<svg xmlns="http://www.w3.org/2000/svg" xmlns:xlink="http://www.w3.org/1999/xlink" width="77pt" height="69pt" viewBox="0 0 77 69" version="1.1">
<g id="surface1">
<path style=" stroke:none;fill-rule:evenodd;fill:rgb(11.372549%,11.372549%,11.372549%);fill-opacity:1;" d="M 33.25 52.265625 L 47.179688 44.402344 C 49.523438 43.089844 49.523438 39.742188 47.179688 38.398438 L 33.25 30.53125 C 30.90625 29.222656 28 30.910156 28 33.535156 L 28 49.230469 C 28 51.886719 30.90625 53.578125 33.25 52.265625 Z M 70 13.800781 L 43.433594 13.800781 L 53.726562 3.65625 C 54.425781 2.96875 54.425781 1.898438 53.726562 1.207031 C 53.023438 0.515625 51.941406 0.515625 51.238281 1.207031 L 38.5 13.765625 L 25.761719 1.207031 C 25.058594 0.515625 23.976562 0.515625 23.273438 1.207031 C 22.574219 1.898438 22.574219 2.96875 23.273438 3.65625 L 33.566406 13.800781 L 7 13.800781 C 3.148438 13.800781 0 16.871094 0 20.699219 L 0 62.101562 C 0 65.894531 3.148438 69 7 69 L 70 69 C 73.851562 69 77 65.894531 77 62.101562 L 77 20.699219 C 77 16.871094 73.851562 13.800781 70 13.800781 Z M 66.5 62.101562 L 10.5 62.101562 C 8.574219 62.101562 7 60.546875 7 58.648438 L 7 24.148438 C 7 22.253906 8.574219 20.699219 10.5 20.699219 L 66.5 20.699219 C 68.425781 20.699219 70 22.253906 70 24.148438 L 70 58.648438 C 70 60.546875 68.425781 62.101562 66.5 62.101562 Z M 66.5 62.101562 "/>
</g>
</svg>
