<?xml version="1.0" encoding="UTF-8"?>
<svg xmlns="http://www.w3.org/2000/svg" xmlns:xlink="http://www.w3.org/1999/xlink" width="71pt" height="71pt" viewBox="0 0 71 71" version="1.1">
<g id="surface1">
<path style=" stroke:none;fill-rule:nonzero;fill:rgb(0%,0%,0%);fill-opacity:1;" d="M 47.332031 22.1875 C 47.332031 28.722656 42.035156 34.019531 35.5 34.019531 C 28.964844 34.019531 23.667969 28.722656 23.667969 22.1875 C 23.667969 15.652344 28.964844 10.355469 35.5 10.355469 C 42.035156 10.355469 47.332031 15.652344 47.332031 22.1875 Z M 47.332031 22.1875 "/>
<path style=" stroke:none;fill-rule:nonzero;fill:rgb(0%,0%,0%);fill-opacity:1;" d="M 59.167969 60.644531 L 59.167969 48.8125 C 59.167969 47.039062 58.277344 45.261719 56.800781 44.078125 C 53.546875 41.417969 49.402344 39.640625 45.261719 38.457031 C 42.304688 37.570312 39.050781 36.980469 35.5 36.980469 C 32.246094 36.980469 28.992188 37.570312 25.738281 38.457031 C 21.597656 39.640625 17.453125 41.710938 14.199219 44.078125 C 12.722656 45.261719 11.832031 47.039062 11.832031 48.8125 L 11.832031 60.644531 Z M 59.167969 60.644531 "/>
</g>
</svg>
