<?xml version="1.0" encoding="UTF-8"?>
<svg xmlns="http://www.w3.org/2000/svg" xmlns:xlink="http://www.w3.org/1999/xlink" width="29pt" height="29pt" viewBox="0 0 29 29" version="1.1">
<g id="surface1">
<path style=" stroke:none;fill-rule:nonzero;fill:rgb(0%,0%,0%);fill-opacity:1;" d="M 27.367188 12.824219 L 22.609375 6.027344 C 22.382812 5.710938 22.066406 5.527344 21.703125 5.484375 C 21.34375 5.4375 20.980469 5.527344 20.707031 5.753906 L 18.804688 7.296875 C 18.53125 7.523438 18.351562 7.839844 18.304688 8.203125 C 18.304688 8.335938 18.304688 8.429688 18.304688 8.5625 C 18.125 8.5625 17.945312 8.609375 17.761719 8.609375 C 17.625 8.609375 17.535156 8.65625 17.398438 8.65625 C 16.675781 8.699219 15.90625 8.925781 15.089844 9.242188 C 14.90625 9.335938 14.726562 9.425781 14.546875 9.515625 C 13.730469 9.109375 12.960938 8.835938 12.1875 8.699219 C 11.644531 8.609375 11.148438 8.5625 10.695312 8.65625 C 10.785156 8.15625 10.601562 7.613281 10.195312 7.296875 L 8.292969 5.753906 C 8.019531 5.527344 7.65625 5.4375 7.296875 5.484375 C 6.933594 5.527344 6.617188 5.710938 6.390625 6.027344 L 1.632812 12.824219 C 1.222656 13.414062 1.3125 14.273438 1.902344 14.773438 L 3.804688 16.3125 C 4.03125 16.492188 4.304688 16.585938 4.621094 16.585938 C 4.667969 16.585938 4.757812 16.585938 4.804688 16.585938 C 5.03125 16.539062 5.210938 16.449219 5.390625 16.3125 C 5.527344 16.71875 5.753906 17.128906 6.070312 17.535156 C 5.980469 17.988281 6.070312 18.488281 6.296875 18.851562 C 6.617188 19.394531 7.160156 19.710938 7.792969 19.710938 C 7.976562 19.710938 8.109375 19.664062 8.246094 19.664062 C 8.292969 19.9375 8.382812 20.164062 8.519531 20.390625 C 8.835938 20.933594 9.378906 21.25 10.015625 21.25 C 10.332031 21.25 10.648438 21.160156 10.964844 20.980469 C 11.011719 21.160156 11.101562 21.34375 11.191406 21.523438 C 11.464844 21.929688 11.828125 22.25 12.28125 22.339844 C 12.507812 22.382812 12.734375 22.382812 12.914062 22.339844 C 12.960938 22.566406 13.050781 22.835938 13.1875 23.0625 C 13.503906 23.609375 14.046875 23.925781 14.679688 23.925781 C 15.042969 23.925781 15.359375 23.835938 15.632812 23.609375 L 16.902344 22.746094 C 17.355469 22.429688 17.625 21.929688 17.671875 21.386719 C 17.988281 21.34375 18.261719 21.160156 18.488281 20.980469 C 18.714844 20.796875 18.851562 20.527344 18.941406 20.300781 C 19.078125 20.34375 19.210938 20.390625 19.394531 20.390625 C 19.710938 20.4375 20.027344 20.34375 20.300781 20.210938 L 20.664062 19.984375 L 20.84375 19.847656 L 21.023438 19.621094 C 21.023438 19.574219 21.070312 19.574219 21.070312 19.53125 C 21.703125 20.164062 22.746094 20.164062 23.425781 19.574219 C 24.015625 19.03125 24.195312 18.125 23.878906 17.398438 C 23.925781 17.128906 23.96875 16.855469 23.96875 16.585938 C 24.378906 16.765625 24.875 16.675781 25.238281 16.359375 L 27.140625 14.816406 C 27.414062 14.589844 27.59375 14.273438 27.640625 13.910156 C 27.6875 13.457031 27.59375 13.09375 27.367188 12.824219 Z M 20.480469 9.832031 C 20.4375 9.789062 20.34375 9.652344 20.300781 9.5625 C 20.210938 9.425781 20.164062 9.335938 20.117188 9.289062 L 19.574219 8.472656 C 19.53125 8.382812 19.53125 8.246094 19.621094 8.203125 L 21.523438 6.660156 C 21.570312 6.617188 21.660156 6.617188 21.703125 6.707031 L 26.460938 13.503906 C 26.507812 13.546875 26.507812 13.59375 26.507812 13.640625 C 26.507812 13.683594 26.460938 13.730469 26.460938 13.773438 L 24.46875 15.359375 C 24.421875 15.359375 24.421875 15.40625 24.378906 15.40625 C 24.378906 15.40625 24.332031 15.40625 24.289062 15.359375 L 21.660156 11.601562 Z M 19.257812 15.226562 C 19.210938 15.132812 19.210938 15.042969 19.210938 14.953125 C 19.210938 14.773438 19.304688 14.636719 19.394531 14.5 C 19.621094 14.273438 19.984375 14.320312 20.164062 14.589844 L 22.609375 17.71875 C 22.835938 17.988281 22.792969 18.398438 22.566406 18.625 C 22.476562 18.714844 22.292969 18.757812 22.15625 18.757812 C 22.023438 18.757812 21.886719 18.667969 21.796875 18.53125 Z M 9.46875 8.472656 L 8.519531 9.832031 C 8.519531 9.832031 8.472656 9.878906 8.472656 9.921875 L 4.710938 15.316406 C 4.667969 15.359375 4.667969 15.359375 4.621094 15.359375 C 4.578125 15.359375 4.578125 15.359375 4.53125 15.359375 L 2.628906 13.820312 C 2.539062 13.773438 2.539062 13.640625 2.582031 13.546875 L 7.339844 6.75 C 7.386719 6.707031 7.386719 6.707031 7.429688 6.707031 C 7.429688 6.707031 7.476562 6.707031 7.476562 6.75 L 9.378906 8.292969 C 9.515625 8.292969 9.515625 8.382812 9.46875 8.472656 Z M 6.480469 14.863281 L 9.789062 10.148438 C 10.875 9.605469 12.144531 9.832031 13.230469 10.285156 C 12.960938 10.46875 12.734375 10.601562 12.6875 10.648438 C 11.917969 11.191406 11.328125 11.828125 11.054688 12.460938 C 10.738281 13.09375 10.695312 13.730469 10.964844 14.226562 C 11.238281 14.679688 11.734375 14.953125 12.324219 15 C 12.867188 15.042969 13.503906 14.863281 14.183594 14.5 L 16.402344 13.09375 C 16.585938 13.003906 16.902344 12.914062 16.992188 12.960938 C 17.039062 12.960938 17.082031 13.09375 17.082031 13.09375 C 17.128906 13.230469 17.171875 13.546875 17.492188 13.867188 C 17.625 14 17.851562 14.226562 18.171875 14.363281 C 18.171875 14.410156 18.125 14.453125 18.125 14.5 C 17.625 14.410156 17.082031 14.546875 16.675781 14.90625 C 16.449219 15.089844 16.3125 15.359375 16.222656 15.585938 C 15.632812 15.359375 15 15.496094 14.5 15.90625 C 14.273438 15.632812 13.957031 15.453125 13.59375 15.359375 C 13.140625 15.269531 12.6875 15.359375 12.28125 15.632812 L 11.828125 15.949219 C 11.78125 15.722656 11.691406 15.496094 11.601562 15.316406 C 11.328125 14.90625 10.964844 14.589844 10.511719 14.5 C 10.058594 14.410156 9.5625 14.5 9.152344 14.773438 L 6.886719 16.359375 C 6.84375 16.359375 6.84375 16.402344 6.796875 16.402344 C 6.433594 15.8125 6.34375 15.316406 6.480469 14.863281 Z M 21.117188 13.820312 C 20.753906 13.414062 20.253906 13.140625 19.757812 13.140625 C 19.53125 13.140625 19.304688 13.1875 19.078125 13.277344 C 18.351562 13.1875 18.261719 12.824219 18.261719 12.824219 L 18.261719 12.777344 C 18.125 12.1875 17.761719 11.917969 17.492188 11.78125 C 16.765625 11.464844 15.90625 11.917969 15.8125 11.960938 L 13.640625 13.367188 C 13.1875 13.640625 12.734375 13.773438 12.414062 13.730469 C 12.234375 13.730469 12.097656 13.683594 12.054688 13.59375 C 12.007812 13.503906 12.007812 13.277344 12.144531 12.960938 C 12.371094 12.507812 12.824219 12.054688 13.414062 11.601562 L 13.457031 11.554688 C 13.683594 11.375 14.5 10.785156 15.585938 10.332031 C 16.628906 9.878906 18.078125 9.515625 19.257812 10.105469 L 22.566406 14.816406 C 22.65625 15.132812 22.746094 15.453125 22.746094 15.769531 Z M 7.339844 18.214844 C 7.25 18.078125 7.203125 17.898438 7.25 17.71875 C 7.296875 17.535156 7.386719 17.398438 7.523438 17.308594 L 9.789062 15.722656 C 9.878906 15.679688 9.96875 15.632812 10.058594 15.632812 C 10.242188 15.632812 10.421875 15.722656 10.511719 15.90625 C 10.695312 16.222656 10.601562 16.628906 10.332031 16.8125 L 8.066406 18.398438 C 7.929688 18.488281 7.792969 18.488281 7.65625 18.488281 C 7.523438 18.441406 7.429688 18.351562 7.339844 18.214844 Z M 9.5625 19.757812 C 9.378906 19.4375 9.46875 19.03125 9.742188 18.851562 L 12.960938 16.628906 C 13.050781 16.585938 13.140625 16.539062 13.230469 16.539062 C 13.277344 16.539062 13.320312 16.539062 13.320312 16.539062 C 13.457031 16.585938 13.59375 16.675781 13.683594 16.8125 C 13.867188 17.128906 13.773438 17.535156 13.503906 17.71875 L 11.691406 18.941406 C 11.644531 18.984375 11.601562 19.03125 11.507812 19.078125 L 10.285156 19.9375 C 10.148438 20.027344 10.015625 20.027344 9.878906 20.027344 C 9.742188 19.984375 9.605469 19.890625 9.5625 19.757812 Z M 12.097656 20.34375 C 12.144531 20.210938 12.1875 20.117188 12.28125 20.027344 L 13.730469 19.03125 C 13.820312 18.984375 13.910156 18.984375 14.046875 19.03125 C 14.183594 19.078125 14.320312 19.167969 14.410156 19.304688 C 14.5 19.4375 14.546875 19.621094 14.5 19.800781 C 14.453125 19.9375 14.410156 20.027344 14.363281 20.117188 L 13.003906 21.070312 C 12.867188 21.160156 12.734375 21.160156 12.597656 21.160156 C 12.460938 21.117188 12.324219 21.023438 12.234375 20.890625 C 12.097656 20.707031 12.054688 20.527344 12.097656 20.34375 Z M 14.183594 22.382812 C 14.046875 22.113281 14.046875 21.796875 14.273438 21.570312 L 15.632812 20.617188 C 15.769531 20.527344 15.90625 20.527344 16.039062 20.527344 C 16.175781 20.570312 16.3125 20.664062 16.402344 20.796875 C 16.585938 21.117188 16.492188 21.523438 16.222656 21.703125 L 14.953125 22.609375 C 14.816406 22.703125 14.679688 22.703125 14.546875 22.703125 C 14.410156 22.65625 14.273438 22.566406 14.183594 22.382812 Z M 16.492188 19.4375 L 15.132812 17.761719 C 15.042969 17.625 15 17.492188 15 17.355469 C 15 17.171875 15.089844 16.992188 15.226562 16.855469 C 15.316406 16.765625 15.453125 16.71875 15.632812 16.71875 C 15.769531 16.71875 15.90625 16.8125 15.996094 16.945312 L 17.761719 19.167969 C 17.851562 19.304688 17.898438 19.484375 17.898438 19.664062 C 17.898438 19.847656 17.808594 19.984375 17.671875 20.117188 C 17.582031 20.210938 17.492188 20.253906 17.355469 20.253906 C 17.171875 19.800781 16.855469 19.574219 16.492188 19.4375 Z M 17.445312 15.769531 C 17.535156 15.679688 17.671875 15.632812 17.808594 15.632812 C 17.988281 15.632812 18.125 15.722656 18.214844 15.859375 L 20.074219 18.304688 C 20.117188 18.398438 20.117188 18.488281 20.117188 18.578125 C 20.117188 18.757812 20.027344 18.894531 19.890625 19.03125 C 19.800781 19.121094 19.664062 19.167969 19.484375 19.167969 C 19.347656 19.167969 19.210938 19.078125 19.121094 18.941406 L 17.355469 16.71875 C 17.265625 16.585938 17.21875 16.402344 17.21875 16.222656 C 17.265625 16.039062 17.355469 15.90625 17.445312 15.769531 Z M 17.445312 15.769531 "/>
<path style=" stroke:none;fill-rule:nonzero;fill:rgb(0%,0%,0%);fill-opacity:1;" d="M 5.257812 13.230469 C 5.210938 13.050781 5.121094 12.777344 4.984375 12.597656 C 4.804688 12.414062 4.578125 12.234375 4.304688 12.234375 C 3.761719 12.234375 3.171875 12.824219 3.171875 13.320312 L 3.171875 13.367188 C 3.171875 13.640625 3.351562 13.867188 3.535156 14.046875 C 3.714844 14.226562 3.988281 14.320312 4.257812 14.320312 C 4.53125 14.320312 4.804688 14.226562 4.984375 14.046875 C 5.121094 13.910156 5.257812 13.730469 5.257812 13.503906 Z M 4.03125 13.367188 C 4.03125 13.277344 4.078125 13.230469 4.125 13.1875 C 4.167969 13.140625 4.257812 13.09375 4.304688 13.09375 C 4.441406 13.09375 4.578125 13.230469 4.578125 13.367188 C 4.578125 13.503906 4.441406 13.640625 4.304688 13.640625 C 4.125 13.640625 4.03125 13.503906 4.03125 13.367188 Z M 4.03125 13.367188 "/>
<path style=" stroke:none;fill-rule:nonzero;fill:rgb(0%,0%,0%);fill-opacity:1;" d="M 24.605469 14.589844 C 24.875 14.589844 25.101562 14.5 25.285156 14.320312 C 25.421875 14.183594 25.511719 14 25.554688 13.773438 L 25.554688 13.503906 C 25.511719 13.320312 25.421875 13.140625 25.285156 13.003906 C 25.101562 12.824219 24.875 12.734375 24.605469 12.734375 C 24.0625 12.734375 23.5625 13.09375 23.5625 13.640625 L 23.5625 13.683594 C 23.5625 13.957031 23.699219 14.183594 23.878906 14.363281 C 24.0625 14.5 24.332031 14.589844 24.605469 14.589844 Z M 24.558594 13.867188 C 24.421875 13.867188 24.289062 13.730469 24.289062 13.59375 C 24.289062 13.503906 24.332031 13.457031 24.378906 13.414062 C 24.421875 13.367188 24.515625 13.320312 24.558594 13.320312 C 24.695312 13.320312 24.832031 13.457031 24.832031 13.59375 C 24.832031 13.773438 24.742188 13.867188 24.558594 13.867188 Z M 24.558594 13.867188 "/>
</g>
</svg>
