<?xml version="1.0" encoding="UTF-8"?>
<svg xmlns="http://www.w3.org/2000/svg" xmlns:xlink="http://www.w3.org/1999/xlink" width="67pt" height="71pt" viewBox="0 0 67 71" version="1.1">
<g id="surface1">
<path style=" stroke:none;fill-rule:nonzero;fill:rgb(0%,0%,0%);fill-opacity:1;" d="M 4.519531 42.195312 L 7.15625 42.195312 L 7.15625 68.472656 C 7.15625 69.9375 8.160156 71 9.539062 71 L 57.460938 71 C 58.839844 71 59.84375 69.9375 59.84375 68.472656 L 59.84375 42.195312 L 62.480469 42.195312 C 63.859375 42.195312 64.863281 41.175781 64.863281 39.671875 L 64.863281 21.324219 C 64.863281 19.863281 63.859375 18.710938 62.480469 18.710938 L 50.6875 18.710938 C 56.207031 15.609375 59.007812 12.773438 59.425781 9.492188 C 59.675781 7.5 59.09375 4.617188 55.035156 2.003906 C 50.726562 -0.742188 47.175781 -0.167969 44.914062 0.808594 C 41.234375 2.402344 37.972656 6.300781 35.296875 12.417969 C 34.878906 13.347656 34.546875 14.234375 34.210938 15.078125 C 33.875 14.234375 33.542969 13.347656 33.125 12.417969 C 30.40625 6.300781 27.1875 2.402344 23.503906 0.808594 C 21.246094 -0.167969 17.691406 -0.742188 13.386719 2.003906 C 9.289062 4.617188 8.746094 7.542969 8.996094 9.539062 C 9.371094 12.773438 12.171875 15.609375 17.691406 18.710938 L 4.519531 18.710938 C 3.140625 18.710938 2.136719 19.863281 2.136719 21.324219 L 2.136719 39.671875 C 2.136719 41.175781 3.140625 42.195312 4.519531 42.195312 Z M 12.171875 42.195312 L 30.992188 42.195312 L 30.992188 65.683594 L 12.171875 65.683594 Z M 54.828125 65.683594 L 36.007812 65.683594 L 36.007812 42.195312 L 54.828125 42.195312 Z M 59.84375 36.878906 L 36.007812 36.878906 L 36.007812 24.027344 L 59.84375 24.027344 Z M 39.855469 14.632812 C 41.945312 9.847656 44.371094 6.746094 46.839844 5.683594 C 47.46875 5.417969 48.09375 5.285156 48.761719 5.285156 C 49.933594 5.285156 51.148438 5.683594 52.441406 6.523438 C 53.738281 7.367188 54.535156 8.253906 54.492188 8.785156 C 54.199219 11.175781 46.882812 15.429688 38.433594 18.222656 C 38.8125 17.160156 39.269531 15.917969 39.855469 14.632812 Z M 13.929688 8.785156 C 13.847656 8.253906 14.640625 7.367188 15.980469 6.523438 C 17.273438 5.683594 18.488281 5.28125 19.660156 5.28125 C 20.328125 5.28125 20.953125 5.417969 21.582031 5.683594 C 25.472656 7.367188 28.398438 13.613281 30.027344 18.222656 C 21.539062 15.429688 14.222656 11.175781 13.929688 8.785156 Z M 7.15625 24.027344 L 30.992188 24.027344 L 30.992188 36.878906 L 7.15625 36.878906 Z M 7.15625 24.027344 "/>
</g>
</svg>
